<svg width="32" height="33" viewBox="0 0 32 33" fill="none" xmlns="http://www.w3.org/2000/svg">
<path d="M26.9811 16.4974C26.9811 16.7444 26.8877 16.9902 26.6995 17.1783L19.0247 24.8583C18.8427 25.0279 18.602 25.1202 18.3533 25.1158C18.1046 25.1115 17.8673 25.0107 17.6914 24.8348C17.5155 24.6589 17.4147 24.4216 17.4104 24.1729C17.406 23.9242 17.4983 23.6835 17.6679 23.5015L23.7095 17.4548H5.53858C5.28397 17.4548 5.03979 17.3537 4.85976 17.1736C4.67972 16.9936 4.57858 16.7494 4.57858 16.4948C4.57858 16.2402 4.67972 15.996 4.85976 15.816C5.03979 15.636 5.28397 15.5348 5.53858 15.5348H23.7005L17.6679 9.49834C17.5762 9.40974 17.5031 9.30378 17.4529 9.18663C17.4026 9.06948 17.3762 8.9435 17.3751 8.81603C17.3741 8.68856 17.3984 8.56216 17.4468 8.44421C17.4951 8.32625 17.5664 8.2191 17.6566 8.129C17.7468 8.03891 17.854 7.96768 17.972 7.91946C18.09 7.87125 18.2164 7.84702 18.3439 7.84818C18.4714 7.84935 18.5973 7.87589 18.7144 7.92626C18.8315 7.97663 18.9374 8.04981 19.0259 8.14154L26.6419 15.7614C26.7486 15.8515 26.8344 15.9638 26.8932 16.0905C26.952 16.2172 26.9824 16.3552 26.9824 16.4948L26.9811 16.4974Z" fill="#D8D8D5"/>
</svg>
