<svg width="24" height="24" viewBox="0 0 24 24" fill="none" xmlns="http://www.w3.org/2000/svg">
<path d="M20 12C20 16.4183 16.4183 20 12 20C7.58172 20 4 16.4183 4 12C4 7.58172 7.58172 4 12 4C16.4183 4 20 7.58172 20 12Z" fill="#FF6B00"/>
<g clip-path="url(#clip0_6975_1490)">
<path d="M9.71523 7C9.89786 7.04525 10.0201 7.16481 10.1324 7.30727C10.5138 7.79079 10.9014 8.26956 11.2867 8.7501C11.5114 9.03042 11.4765 9.32431 11.1914 9.54811C11.0751 9.6395 10.9626 9.73652 10.84 9.81875C10.6226 9.96455 10.5463 10.179 10.5197 10.419C10.4749 10.8231 10.5829 11.1985 10.7666 11.553C11.038 12.0769 11.404 12.5276 11.8888 12.8763C12.2351 13.1253 12.6152 13.2878 13.0574 13.2593C13.1973 13.2503 13.324 13.2098 13.4345 13.1196C13.5673 13.0113 13.7041 12.9074 13.8407 12.8035C14.1154 12.5947 14.4183 12.6298 14.6325 12.8962C15.0425 13.4061 15.4514 13.9166 15.86 14.4277C16.0743 14.6959 16.0408 14.9968 15.7687 15.2064C15.5438 15.3795 15.3234 15.5612 15.0826 15.71C14.681 15.9579 14.2303 16.0264 13.7621 15.9915C13.1194 15.9437 12.5369 15.7153 11.9853 15.4027C11.0051 14.8472 10.2114 14.0883 9.53315 13.2057C9.02413 12.5431 8.61215 11.8272 8.32675 11.0445C8.16311 10.5942 8.04655 10.132 8.01593 9.65182C8.01414 9.62312 8.00537 9.59477 8 9.56642C8 9.45514 8 9.34368 8 9.23239C8.00609 9.18643 8.01379 9.14065 8.0179 9.09469C8.06302 8.59638 8.20429 8.1294 8.55163 7.75434C8.74231 7.54833 8.97757 7.38228 9.19278 7.19827C9.29914 7.10724 9.41462 7.03222 9.55427 7H9.71505H9.71523Z" fill="white"/>
</g>
<defs>
<clipPath id="clip0_6975_1490">
<rect width="8" height="9" fill="white" transform="translate(8 7)"/>
</clipPath>
</defs>
</svg>
