<svg width="33" height="32" viewBox="0 0 33 32" fill="none" xmlns="http://www.w3.org/2000/svg">
<path d="M24.3673 22.3559C24.7838 22.7725 24.7838 23.4479 24.3673 23.8644C23.9507 24.281 23.2753 24.281 22.8588 23.8644L16.501 17.5067L10.1412 23.8665C9.72467 24.283 9.04929 24.283 8.63273 23.8665C8.21617 23.4499 8.21617 22.7745 8.63273 22.358L14.9896 16.0011L8.63273 9.64424C8.21617 9.22768 8.21617 8.55231 8.63273 8.13575C9.04929 7.71919 9.72467 7.71919 10.1412 8.13575L16.499 14.4935L22.8588 8.13371C23.2753 7.71715 23.9507 7.71715 24.3673 8.13371C24.7838 8.55027 24.7838 9.22564 24.3673 9.6422L18.0104 15.9991L24.3673 22.3559Z" fill="white"/>
</svg>
