<svg width="24" height="24" viewBox="0 0 24 24" fill="none" xmlns="http://www.w3.org/2000/svg">
<path fill-rule="evenodd" clip-rule="evenodd" d="M11.9995 20C16.4178 20 19.9995 16.4183 19.9995 12C19.9995 7.58172 16.4178 4 11.9995 4C7.58123 4 3.99951 7.58172 3.99951 12C3.99951 16.4183 7.58123 20 11.9995 20ZM8.53902 8.60213C8.31935 8.8218 8.31935 9.17796 8.53902 9.39762L11.2049 12.0635L8.53902 14.7295C8.31935 14.9491 8.31935 15.3053 8.53902 15.525C8.75869 15.7446 9.11485 15.7446 9.33451 15.525L12.0004 12.859L14.6664 15.525C14.886 15.7446 15.2422 15.7446 15.4619 15.525C15.6815 15.3053 15.6815 14.9491 15.4619 14.7295L12.7959 12.0635L15.4619 9.39762C15.6815 9.17796 15.6815 8.8218 15.4619 8.60213C15.2422 8.38246 14.886 8.38246 14.6664 8.60213L12.0004 11.2681L9.33451 8.60213C9.11485 8.38246 8.75869 8.38246 8.53902 8.60213Z" fill="#D8D8D5"/>
</svg>
