<svg width="61" height="61" viewBox="0 0 61 61" fill="none" xmlns="http://www.w3.org/2000/svg">
<rect x="0.429443" y="0.0837402" width="60" height="60" rx="30" fill="white"/>
<path d="M22.402 36.4397C21.9855 36.8562 21.9855 37.5316 22.402 37.9482C22.8186 38.3647 23.494 38.3647 23.9105 37.9482L30.2683 31.5904L36.6281 37.9502C37.0446 38.3668 37.72 38.3668 38.1366 37.9502C38.5531 37.5336 38.5531 36.8583 38.1366 36.4417L31.7797 30.0848L38.1366 23.728C38.5531 23.3114 38.5531 22.636 38.1366 22.2195C37.72 21.8029 37.0446 21.8029 36.6281 22.2195L30.2703 28.5772L23.9105 22.2174C23.494 21.8009 22.8186 21.8009 22.402 22.2174C21.9855 22.634 21.9855 23.3094 22.402 23.7259L28.7589 30.0828L22.402 36.4397Z" fill="#1D1D1B"/>
</svg>
