<svg width="24" height="24" viewBox="0 0 24 24" fill="none" xmlns="http://www.w3.org/2000/svg">
<path fill-rule="evenodd" clip-rule="evenodd" d="M10.6895 17.2671C12.2403 17.2671 13.6678 16.7438 14.8023 15.8656L18.0801 19.1159C18.0985 19.1392 18.1185 19.1617 18.1401 19.1832L18.7493 19.7872C19.0354 20.0709 19.4993 20.0709 19.7854 19.7872C20.0715 19.5035 20.0715 19.0435 19.7854 18.7597L19.1763 18.1557C19.1545 18.1341 19.1318 18.1142 19.1081 18.0959L15.8453 14.8604C16.8033 13.7127 17.379 12.2398 17.379 10.6335C17.379 6.96993 14.384 4 10.6895 4C6.995 4 4 6.96993 4 10.6335C4 14.2971 6.995 17.2671 10.6895 17.2671ZM10.6895 15.825C13.5809 15.825 15.9248 13.5007 15.9248 10.6335C15.9248 7.76637 13.5809 5.44207 10.6895 5.44207C7.79816 5.44207 5.45424 7.76637 5.45424 10.6335C5.45424 13.5007 7.79816 15.825 10.6895 15.825Z" fill="#1D1D1B"/>
</svg>
