<svg width="24" height="24" viewBox="0 0 24 24" fill="none" xmlns="http://www.w3.org/2000/svg">
<path d="M11.9961 17.5494C12.1218 17.5494 12.2358 17.5279 12.3379 17.485C12.4401 17.4421 12.5383 17.3777 12.6326 17.2918C13.1356 16.794 13.6149 16.3047 14.0707 15.824C14.5265 15.3433 14.9234 14.8712 15.2613 14.4077C15.5992 13.9442 15.8703 13.4936 16.0747 13.0558C16.279 12.618 16.3811 12.1931 16.3811 11.7811C16.3811 11.0258 16.1454 10.3991 15.6739 9.90129C15.2024 9.40343 14.6365 9.15451 13.9764 9.15451C13.5678 9.15451 13.1945 9.24464 12.8566 9.42489C12.5187 9.60515 12.2318 9.8412 11.9961 10.133C11.7603 9.8412 11.4656 9.60515 11.112 9.42489C10.7584 9.24464 10.3929 9.15451 10.0157 9.15451C9.3556 9.15451 8.78978 9.40343 8.31827 9.90129C7.84676 10.3991 7.611 11.0258 7.611 11.7811C7.611 12.1931 7.71316 12.618 7.91749 13.0558C8.12181 13.4936 8.39293 13.9442 8.73084 14.4077C9.06876 14.8712 9.46562 15.3433 9.92141 15.824C10.3772 16.3047 10.8566 16.794 11.3595 17.2918C11.4538 17.3777 11.5521 17.4421 11.6542 17.485C11.7564 17.5279 11.8703 17.5494 11.9961 17.5494ZM6.33792 21C5.81925 21 5.37525 20.7983 5.00589 20.3948C4.63654 19.9914 4.45187 19.5064 4.45187 18.9399V11.3433L3.50884 12.1416C3.2888 12.3133 3.05305 12.382 2.80157 12.3476C2.5501 12.3133 2.34578 12.176 2.18861 11.9356C2.03143 11.6953 1.9725 11.4378 2.01179 11.1631C2.05108 10.8884 2.17289 10.6652 2.37721 10.4936L10.8409 3.41202C11.0138 3.27468 11.1984 3.17167 11.3949 3.103C11.5914 3.03433 11.7917 3 11.9961 3C12.2004 3 12.4008 3.03433 12.5972 3.103C12.7937 3.17167 12.9784 3.27468 13.1513 3.41202L21.6385 10.4936C21.8428 10.6652 21.9607 10.8884 21.9921 11.1631C22.0236 11.4378 21.9607 11.6953 21.8035 11.9356C21.6464 12.1588 21.442 12.2876 21.1906 12.3219C20.9391 12.3562 20.7112 12.2876 20.5069 12.1159L19.5403 11.3433V18.9399C19.5403 19.5064 19.3556 19.9914 18.9862 20.3948C18.6169 20.7983 18.1729 21 17.6542 21H6.33792Z" fill="#BFBFBA"/>
</svg>
