<svg width="25" height="24" viewBox="0 0 25 24" fill="none" xmlns="http://www.w3.org/2000/svg">
<path fill-rule="evenodd" clip-rule="evenodd" d="M15.8907 7.09184C14.6995 6.60987 13.4436 6.35857 12.1877 6.36716C8.82661 6.34418 5.46551 8.18258 3.34534 11.3224C3.2097 11.5226 3.13721 11.7589 3.13721 12.0008C3.13721 12.2427 3.2097 12.479 3.34534 12.6792C4.30786 14.1047 5.52614 15.2618 6.88407 16.0984L8.95968 14.0228C8.84761 13.8439 8.75013 13.6552 8.66862 13.4585C8.38033 12.7624 8.3049 11.9966 8.45187 11.2577C8.59884 10.5188 8.96162 9.84011 9.49432 9.30741C10.027 8.77471 10.7057 8.41193 11.4446 8.26496C12.1835 8.11799 12.9494 8.19342 13.6454 8.48172C13.8421 8.56322 14.0308 8.66071 14.2097 8.77277L15.8907 7.09184ZM13.221 9.76154C12.9067 9.61624 12.5566 9.53517 12.1875 9.53517C10.8258 9.53517 9.72197 10.6391 9.72197 12.0008C9.72197 12.3698 9.80303 12.7199 9.94833 13.0342L13.221 9.76154ZM11.3841 14.3325L14.5192 11.1973C14.606 11.4491 14.6531 11.7194 14.6531 12.0008C14.6531 13.3625 13.5493 14.4663 12.1875 14.4663C11.9062 14.4663 11.6359 14.4192 11.3841 14.3325ZM10.3689 15.3476C10.9255 15.6501 11.5506 15.8098 12.1877 15.8098C13.1979 15.8098 14.1668 15.4085 14.8811 14.6942C15.5954 13.9799 15.9967 13.011 15.9967 12.0008C15.9967 11.3637 15.837 10.7386 15.5345 10.182L17.6888 8.02771C18.9674 8.85314 20.1144 9.96639 21.0301 11.3224C21.1657 11.5226 21.2382 11.7589 21.2382 12.0008C21.2382 12.2427 21.1657 12.479 21.0301 12.6792C18.9099 15.819 15.5488 17.6574 12.1877 17.6345C11.0129 17.6425 9.83809 17.4231 8.71627 17.0002L10.3689 15.3476Z" fill="#D8D8D5"/>
<path fill-rule="evenodd" clip-rule="evenodd" d="M18.245 5.16641C18.4655 5.38771 18.4648 5.74587 18.2435 5.96637L5.3277 18.8351C5.10639 19.0556 4.74824 19.0549 4.52774 18.8336C4.30724 18.6123 4.3079 18.2541 4.5292 18.0336L17.445 5.16495C17.6663 4.94445 18.0245 4.9451 18.245 5.16641Z" fill="#D8D8D5"/>
</svg>
