<svg width="24" height="24" viewBox="0 0 24 24" fill="none" xmlns="http://www.w3.org/2000/svg">
<path d="M20 12C20 16.4183 16.4183 20 12 20C7.58172 20 4 16.4183 4 12C4 7.58172 7.58172 4 12 4C16.4183 4 20 7.58172 20 12Z" fill="#FF91A2"/>
<g clip-path="url(#clip0_6975_1498)">
<path d="M15.3909 15H8.61019C8.54429 14.9792 8.47839 14.9584 8.42188 14.9407C9.30116 14.0748 10.1797 13.2098 11.0673 12.3359C11.0788 12.3498 11.095 12.3733 11.115 12.393C11.3356 12.6108 11.5566 12.8281 11.7776 13.0454C11.926 13.1913 12.0394 13.1916 12.1925 13.0469C12.4252 12.8268 12.6579 12.6066 12.8908 12.3865C12.9107 12.3677 12.9316 12.3498 12.9426 12.3401C13.8261 13.2101 14.7034 14.0738 15.5827 14.9394C15.5227 14.9584 15.4568 14.9792 15.3909 15Z" fill="white"/>
<path d="M8 9.60055C8.02113 9.53562 8.04242 9.47069 8.06168 9.41162C8.94096 10.2774 9.81822 11.1411 10.6883 11.9977C9.81806 12.8544 8.93956 13.7195 8.06042 14.5851C8.04242 14.5299 8.02113 14.465 8 14.4001C8 12.8003 8 11.2003 8 9.60055Z" fill="white"/>
<path d="M15.598 9.07376C14.3959 10.252 13.1992 11.4249 12.0112 12.5895C10.8076 11.4046 9.61629 10.2315 8.41406 9.04785C8.51879 9.03258 8.62727 9.00374 8.73607 9.00282C9.30603 8.99819 9.87615 9.00066 10.4463 9.00066C12.0472 9.00066 13.648 9.00081 15.2489 9.00035C15.3667 9.00035 15.4803 9.01485 15.598 9.07376Z" fill="white"/>
<path d="M15.9343 14.5876C15.0561 13.7229 14.1787 12.8591 13.3066 12.0004C14.1787 11.1416 15.0561 10.2778 15.9498 9.39795C15.9672 9.51115 15.9968 9.61741 15.9977 9.72398C16.0027 10.2393 15.9999 10.7545 15.9999 11.2699C15.9999 12.2698 15.9998 13.2696 16.0002 14.2695C16.0002 14.3828 15.9849 14.492 15.9343 14.5876Z" fill="white"/>
</g>
<defs>
<clipPath id="clip0_6975_1498">
<rect width="8" height="6" fill="white" transform="translate(8 9)"/>
</clipPath>
</defs>
</svg>
