<svg width="101" height="101" viewBox="0 0 101 101" fill="none" xmlns="http://www.w3.org/2000/svg">
<path d="M27.4863 49.1361L27.4876 49.1082V49.0803C27.4876 42.8629 29.9574 36.9001 34.3538 32.5037C38.7502 28.1074 44.7129 25.6375 50.9303 25.6375C54.0089 25.6375 57.0573 26.2439 59.9015 27.422C62.7457 28.6001 65.33 30.3269 67.5069 32.5037C69.6838 34.6806 71.4105 37.2649 72.5886 40.1091C73.7668 42.9533 74.3731 46.0017 74.3731 49.0803V49.1079L74.3744 49.1355C74.5303 52.5233 73.8797 55.8998 72.476 58.9871C71.0724 62.0744 68.9557 64.7843 66.3003 66.8939L66.2635 66.9231L66.2292 66.955C64.176 68.8659 62.5885 70.3488 62.164 72.5231H59.5973C60.0094 69.2979 62.0842 67.359 64.4592 65.1395L64.4716 65.1279C66.9128 63.2525 68.8604 60.8102 70.1455 58.0122C71.4342 55.2063 72.0174 52.1281 71.8445 49.0456C71.8354 43.5113 69.6329 38.2057 65.7189 34.2917C61.7968 30.3695 56.4771 28.1661 50.9303 28.1661C45.3835 28.1661 40.0639 30.3695 36.1417 34.2917C32.2279 38.2056 30.0255 43.5109 30.0161 49.045C29.8404 52.125 30.4196 55.2016 31.7035 58.0071C32.9849 60.807 34.9294 63.2521 37.3683 65.1308C39.7572 67.3214 41.8442 69.3185 42.2617 72.5231H39.6951C39.2679 70.3614 37.6809 68.8855 35.6745 67.0197L35.5972 66.9478L35.5609 66.9189C32.9034 64.8056 30.7857 62.0915 29.3819 58.9999C27.9781 55.9084 27.3284 52.5277 27.4863 49.1361Z" fill="black"/>
<path d="M62.0517 78.3802V75.8516H39.8089V78.3802H62.0517Z" fill="black"/>
<path d="M42.7375 80.7088H60.1232V83.2373H42.7375V80.7088Z" fill="black"/>
<path d="M45.7375 85.0838H57.1232V87.6124H45.7375V85.0838Z" fill="black"/>
<path d="M49.6848 40.804C50.4485 39.4402 52.4113 39.4401 53.1749 40.804L55.0903 44.2246C55.3762 44.7352 55.8714 45.095 56.4453 45.2091L60.2904 45.9737C61.8235 46.2785 62.43 48.1452 61.3689 49.293L58.7076 52.1716C58.3103 52.6013 58.1212 53.1834 58.19 53.7645L58.651 57.6577C58.8349 59.2099 57.2469 60.3636 55.8275 59.7092L52.2673 58.0676C51.7359 57.8226 51.1238 57.8226 50.5924 58.0676L47.0323 59.7092C45.6128 60.3636 44.0249 59.21 44.2087 57.6577L44.6697 53.7645C44.7386 53.1834 44.5494 52.6013 44.1522 52.1716L41.4908 49.293C40.4297 48.1452 41.0363 46.2785 42.5693 45.9737L46.4144 45.2091C46.9884 45.095 47.4835 44.7352 47.7694 44.2246L49.6848 40.804Z" fill="black"/>
<path d="M50.4299 14.1875V21.9375" stroke="black" stroke-width="2.4"/>
<path d="M29.4396 19.1973L34.9197 24.6773" stroke="black" stroke-width="2.4"/>
<path d="M18.1408 37.582L25.8908 37.582" stroke="black" stroke-width="2.4"/>
<path d="M71.4201 19.1973L65.94 24.6773" stroke="black" stroke-width="2.4"/>
<path d="M82.7189 37.582L74.9689 37.582" stroke="black" stroke-width="2.4"/>
</svg>
