<svg width="101" height="101" viewBox="0 0 101 101" fill="none" xmlns="http://www.w3.org/2000/svg">
<path d="M51.251 50.2896L60.4698 41.0707V36.4207L69.2698 27.6208V34.3752H76.0242L67.2242 43.1751H62.5742L53.3554 52.394L53.7072 53.4493C53.7556 53.5946 53.7698 53.7695 53.7698 54.2751C53.7698 55.4421 53.3063 56.5612 52.4811 57.3864C51.6559 58.2115 50.5368 58.6751 49.3698 58.6751C48.2029 58.6751 47.0837 58.2115 46.2586 57.3864C45.4334 56.5612 44.9699 55.4421 44.9699 54.2751C44.9699 53.1082 45.4334 51.989 46.2586 51.1639C47.0837 50.3387 48.2029 49.8751 49.3698 49.8751C49.8754 49.8751 50.0504 49.8893 50.1956 49.9378L51.251 50.2896Z" fill="black"/>
<path d="M38.1955 27.2979C41.7382 25.8305 45.5353 25.0752 49.3698 25.0752C51.7803 25.0752 54.1813 25.3866 56.5194 25.98L54.3401 28.1593C52.6969 27.8367 51.0336 27.6752 49.3698 27.6752C42.3151 27.6752 35.5493 30.4777 30.5608 35.4661C25.5724 40.4546 22.7699 47.2204 22.7699 54.2751C22.7699 61.3299 25.5724 68.0956 30.5608 73.0841C35.5493 78.0726 42.3151 80.875 49.3698 80.875C56.4246 80.875 63.1904 78.0726 68.1788 73.0841C73.1673 68.0956 75.9698 61.3299 75.9698 54.2751C75.9698 52.6113 75.8083 50.9481 75.4857 49.3048L77.6536 47.1368C78.2575 49.4601 78.5698 51.861 78.5698 54.2751C78.5698 62.0194 75.4933 69.4465 70.0173 74.9226C64.5413 80.3986 57.1141 83.475 49.3698 83.475C45.5353 83.475 41.7382 82.7198 38.1955 81.2523C34.6528 79.7849 31.4338 77.634 28.7224 74.9226C23.2463 69.4465 20.1699 62.0194 20.1699 54.2751C20.1699 46.5308 23.2463 39.1037 28.7224 33.6277C31.4338 30.9162 34.6528 28.7653 38.1955 27.2979Z" fill="black"/>
<path d="M37.4905 42.3958C40.2139 39.6723 43.7761 37.9805 47.5698 37.5718V40.1896C44.4677 40.586 41.5641 41.9991 39.3289 44.2342C36.6659 46.8972 35.1699 50.509 35.1699 54.2751C35.1699 58.0412 36.6659 61.653 39.3289 64.316C41.992 66.979 45.6038 68.4751 49.3698 68.4751C53.1359 68.4751 56.7477 66.979 59.4107 64.316C61.6459 62.0809 63.059 59.1773 63.4553 56.0751H66.0731C65.6644 59.8689 63.9726 63.4311 61.2492 66.1545C58.0986 69.3051 53.8255 71.0751 49.3698 71.0751C44.9142 71.0751 40.6411 69.3051 37.4905 66.1545C34.3399 63.0039 32.5699 58.7307 32.5699 54.2751C32.5699 49.8195 34.3399 45.5464 37.4905 42.3958Z" fill="black"/>
<path d="M74.719 17.5254L75.7588 20.3354L78.5688 21.3752L75.7588 22.4151L74.719 25.2251L73.6792 22.4151L70.8691 21.3752L73.6792 20.3354L74.719 17.5254Z" fill="black"/>
<path d="M16.3186 33.0254L17.3584 35.8354L20.1685 36.8752L17.3584 37.9151L16.3186 40.7251L15.2788 37.9151L12.4688 36.8752L15.2788 35.8354L16.3186 33.0254Z" fill="black"/>
<path d="M69.5686 61.7754L70.6084 64.5854L73.4185 65.6252L70.6084 66.6651L69.5686 69.4751L68.5288 66.6651L65.7188 65.6252L68.5288 64.5854L69.5686 61.7754Z" fill="black"/>
</svg>
