<svg width="101" height="101" viewBox="0 0 101 101" fill="none" xmlns="http://www.w3.org/2000/svg">
<path d="M52.1737 59.6556L52.1738 59.6556C53.4533 58.6955 55.0067 57.471 56.4265 56.193C57.8611 54.9017 59.0997 53.6083 59.802 52.5112L59.8023 52.5106C60.8186 50.9254 61.1496 48.9573 60.708 47.1332L60.7063 47.1263L60.7047 47.1193C59.7934 43.1053 54.7016 41.4317 51.5345 44.1418L51.532 44.1439C51.3633 44.2873 51.2019 44.4512 50.998 44.6598L52.1737 59.6556ZM52.1737 59.6556C51.8274 59.9155 51.1553 60.3941 50.5581 60.8155C50.3707 60.9478 50.1923 61.0734 50.0358 61.1833M52.1737 59.6556L50.0358 61.1833M50.0358 61.1833C49.8794 61.0734 49.7009 60.9478 49.5135 60.8155C48.9164 60.3941 48.2442 59.9155 47.8979 59.6556L47.8978 59.6556C46.6183 58.6955 45.065 57.471 43.6451 56.193C42.2105 54.9017 40.9719 53.6083 40.2697 52.5112L40.2693 52.5106C39.253 50.9254 38.9221 48.9573 39.3636 47.1332L39.3653 47.1263L39.3669 47.1193C40.2783 43.1053 45.37 41.4317 48.5372 44.1418L48.5397 44.1439C48.7083 44.2873 48.8697 44.4512 49.0737 44.6598L50.0358 61.1833ZM50.0358 45.6201L49.3312 44.9205C49.241 44.8309 49.1542 44.7422 49.0738 44.6599L50.0358 45.6201ZM50.0358 45.6201L50.7404 44.9205M50.0358 45.6201L50.7404 44.9205M50.7404 44.9205C50.8306 44.8309 50.9174 44.7422 50.9978 44.6599L50.7404 44.9205Z" fill="black" stroke="black" stroke-width="2"/>
<mask id="path-2-inside-1_2041_3851" fill="white">
<path fill-rule="evenodd" clip-rule="evenodd" d="M34.3608 29.1874C32.3535 26.8764 28.8528 26.6301 26.5418 28.6374C23.079 31.6451 20.3546 35.4092 18.5794 39.6385C17.9007 41.2557 17.3676 42.9243 16.9838 44.6245C14.6091 46.2649 13.0531 49.006 13.0531 52.1106C13.0531 55.4597 14.8639 58.3859 17.5599 59.9635C18.206 62.0732 19.0857 64.1119 20.1874 66.0403C22.4627 70.0229 25.6238 73.4285 29.4261 75.9938C31.9636 77.7057 35.4085 77.0365 37.1205 74.4989C38.8325 71.9614 38.1632 68.5165 35.6257 66.8045C33.2331 65.1904 31.2441 63.0474 29.8124 60.5415C29.4098 59.8367 29.0543 59.1086 28.7473 58.3619C30.2907 56.7324 31.2373 54.532 31.2373 52.1106C31.2373 49.4436 30.0891 47.0449 28.26 45.3817C28.4198 44.8911 28.6001 44.4063 28.8006 43.9286C29.9176 41.2674 31.6319 38.8989 33.8108 37.0064C36.1218 34.9991 36.3681 31.4984 34.3608 29.1874ZM26.2067 43.9738C26.3255 43.6465 26.4525 43.3217 26.5876 42.9997C27.8471 39.9991 29.7801 37.3284 32.237 35.1944C33.5473 34.0563 33.6869 32.0715 32.5488 30.7612C31.4107 29.4509 29.4259 29.3113 28.1156 30.4494C24.9307 33.2156 22.425 36.6776 20.7924 40.5673C20.4137 41.4697 20.0843 42.3894 19.8049 43.3225C20.5516 43.1241 21.3361 43.0185 22.1452 43.0185C23.6049 43.0185 24.9843 43.3625 26.2067 43.9738ZM20.4703 61.0487C20.9712 62.3561 21.5728 63.627 22.2713 64.8498C24.364 68.5126 27.2713 71.6449 30.7683 74.0042C32.2071 74.9749 34.1603 74.5954 35.1309 73.1567C36.1016 71.7179 35.7221 69.7647 34.2834 68.7941C31.5857 66.974 29.3428 64.5577 27.7285 61.732C27.3912 61.1416 27.0832 60.5366 26.8052 59.9193C25.4425 60.7343 23.8485 61.2027 22.1452 61.2027C21.573 61.2027 21.0131 61.1498 20.4703 61.0487Z"/>
</mask>
<path d="M26.5418 28.6374L24.968 26.8255V26.8255L26.5418 28.6374ZM34.3608 29.1874L32.5488 30.7612L32.5488 30.7612L34.3608 29.1874ZM18.5794 39.6385L20.7924 40.5673L18.5794 39.6385ZM16.9838 44.6245L18.3478 46.5992L19.1185 46.0668L19.3248 45.1531L16.9838 44.6245ZM17.5599 59.9635L19.8547 59.2607L19.5805 58.3651L18.772 57.8921L17.5599 59.9635ZM20.1874 66.0403L22.2713 64.8498L20.1874 66.0403ZM29.4261 75.9938L30.7683 74.0042L30.7683 74.0042L29.4261 75.9938ZM37.1205 74.4989L39.11 75.8412H39.11L37.1205 74.4989ZM35.6257 66.8045L36.9679 64.815L35.6257 66.8045ZM29.8124 60.5415L31.8963 59.3509L31.8963 59.3509L29.8124 60.5415ZM28.7473 58.3619L27.0049 56.7114L25.9373 57.8385L26.5275 59.2743L28.7473 58.3619ZM28.26 45.3817L25.978 44.6383L25.4974 46.1136L26.6454 47.1574L28.26 45.3817ZM28.8006 43.9286L26.5876 42.9997L26.5876 42.9997L28.8006 43.9286ZM33.8108 37.0064L32.237 35.1944V35.1944L33.8108 37.0064ZM26.2067 43.9738L25.1332 46.1203L27.5435 47.3258L28.4628 44.7925L26.2067 43.9738ZM26.5876 42.9997L24.3747 42.0709L24.3747 42.0709L26.5876 42.9997ZM32.237 35.1944L33.8108 37.0064L32.237 35.1944ZM32.5488 30.7612L30.7369 32.335V32.335L32.5488 30.7612ZM28.1156 30.4494L29.6894 32.2613V32.2613L28.1156 30.4494ZM20.7924 40.5673L18.5794 39.6385L18.5794 39.6385L20.7924 40.5673ZM19.8049 43.3225L17.5058 42.6341L16.2755 46.7432L20.421 45.6421L19.8049 43.3225ZM20.4703 61.0487L20.9096 58.6893L16.6952 57.9044L18.2292 61.9075L20.4703 61.0487ZM22.2713 64.8498L24.3552 63.6592H24.3552L22.2713 64.8498ZM30.7683 74.0042L32.1106 72.0147L30.7683 74.0042ZM35.1309 73.1567L33.1414 71.8144L33.1414 71.8144L35.1309 73.1567ZM34.2834 68.7941L35.6257 66.8045H35.6257L34.2834 68.7941ZM27.7285 61.732L29.8124 60.5415L27.7285 61.732ZM26.8052 59.9193L28.9936 58.9338L27.8868 56.476L25.5734 57.8595L26.8052 59.9193ZM28.1156 30.4494C29.4259 29.3113 31.4107 29.4509 32.5488 30.7612L36.1727 27.6136C33.2963 24.3019 28.2798 23.949 24.968 26.8255L28.1156 30.4494ZM20.7924 40.5673C22.425 36.6776 24.9307 33.2156 28.1156 30.4494L24.968 26.8255C21.2272 30.0746 18.2841 34.1409 16.3665 38.7096L20.7924 40.5673ZM19.3248 45.1531C19.6779 43.5894 20.1681 42.0547 20.7924 40.5673L16.3665 38.7096C15.6332 40.4566 15.0574 42.2592 14.6427 44.0959L19.3248 45.1531ZM15.4531 52.1106C15.4531 49.8276 16.5941 47.8106 18.3478 46.5992L15.6197 42.6498C12.6241 44.7192 10.6531 48.1844 10.6531 52.1106H15.4531ZM18.772 57.8921C16.7814 56.7272 15.4531 54.5727 15.4531 52.1106H10.6531C10.6531 56.3467 12.9465 60.0446 16.3478 62.0349L18.772 57.8921ZM22.2713 64.8498C21.258 63.0761 20.4489 61.2012 19.8547 59.2607L15.2651 60.6662C15.963 62.9453 16.9134 65.1476 18.1036 67.2309L22.2713 64.8498ZM30.7683 74.0042C27.2713 71.6449 24.364 68.5126 22.2713 64.8498L18.1036 67.2309C20.5615 71.5331 23.9763 75.2122 28.0838 77.9833L30.7683 74.0042ZM35.1309 73.1567C34.1603 74.5954 32.2071 74.9749 30.7683 74.0042L28.0838 77.9833C31.7201 80.4366 36.6568 79.4775 39.11 75.8412L35.1309 73.1567ZM34.2834 68.7941C35.7221 69.7647 36.1016 71.7179 35.1309 73.1567L39.11 75.8412C41.5633 72.2049 40.6043 67.2683 36.9679 64.815L34.2834 68.7941ZM27.7285 61.732C29.3428 64.5577 31.5857 66.974 34.2834 68.7941L36.9679 64.815C34.8806 63.4068 33.1453 61.5372 31.8963 59.3509L27.7285 61.732ZM26.5275 59.2743C26.8737 60.1163 27.2745 60.9374 27.7285 61.732L31.8963 59.3509C31.545 58.7361 31.2349 58.1008 30.9671 57.4494L26.5275 59.2743ZM28.8373 52.1106C28.8373 53.894 28.1429 55.51 27.0049 56.7114L30.4898 60.0123C32.4385 57.9549 33.6373 55.1701 33.6373 52.1106H28.8373ZM26.6454 47.1574C27.9953 48.3849 28.8373 50.1477 28.8373 52.1106H33.6373C33.6373 48.7395 32.1828 45.7049 29.8746 43.606L26.6454 47.1574ZM26.5876 42.9997C26.3616 43.5384 26.1583 44.085 25.978 44.6383L30.5419 46.1252C30.6814 45.6971 30.8387 45.2742 31.0136 44.8574L26.5876 42.9997ZM32.237 35.1944C29.7801 37.3284 27.8471 39.9991 26.5876 42.9997L31.0136 44.8574C31.9881 42.5358 33.4836 40.4694 35.3846 38.8183L32.237 35.1944ZM32.5488 30.7612C33.6869 32.0715 33.5473 34.0563 32.237 35.1944L35.3846 38.8183C38.6963 35.9418 39.0492 30.9253 36.1727 27.6136L32.5488 30.7612ZM28.4628 44.7925C28.5682 44.5021 28.6808 44.2141 28.8006 43.9286L24.3747 42.0709C24.2243 42.4292 24.0829 42.7908 23.9507 43.1552L28.4628 44.7925ZM28.8006 43.9286C29.9176 41.2674 31.6319 38.8989 33.8108 37.0064L30.6632 33.3825C27.9283 35.7579 25.7766 38.7307 24.3747 42.0709L28.8006 43.9286ZM33.8108 37.0064C36.1218 34.9991 36.3681 31.4984 34.3608 29.1874L30.7369 32.335C31.0058 32.6446 30.9728 33.1135 30.6632 33.3825L33.8108 37.0064ZM34.3608 29.1874C32.3535 26.8764 28.8528 26.6301 26.5418 28.6374L29.6894 32.2613C29.999 31.9924 30.468 32.0254 30.7369 32.335L34.3608 29.1874ZM26.5418 28.6374C23.079 31.6451 20.3546 35.4092 18.5794 39.6385L23.0054 41.4962C24.4955 37.9459 26.7825 34.7861 29.6894 32.2613L26.5418 28.6374ZM18.5794 39.6385C18.1677 40.6196 17.8095 41.6196 17.5058 42.6341L22.1041 44.0109C22.3591 43.1592 22.6597 42.3198 23.0054 41.4962L18.5794 39.6385ZM20.421 45.6421C20.9685 45.4966 21.5459 45.4185 22.1452 45.4185V40.6185C21.1263 40.6185 20.1348 40.7517 19.1888 41.0029L20.421 45.6421ZM22.1452 45.4185C23.2239 45.4185 24.2366 45.6719 25.1332 46.1203L27.2803 41.8273C25.7321 41.053 23.986 40.6185 22.1452 40.6185V45.4185ZM18.2292 61.9075C18.7739 63.3289 19.4279 64.7108 20.1874 66.0403L24.3552 63.6592C23.7176 62.5432 23.1686 61.3832 22.7113 60.1899L18.2292 61.9075ZM20.1874 66.0403C22.4627 70.0229 25.6238 73.4285 29.4261 75.9938L32.1106 72.0147C28.9188 69.8613 26.2652 67.0024 24.3552 63.6592L20.1874 66.0403ZM29.4261 75.9938C31.9636 77.7057 35.4085 77.0365 37.1205 74.4989L33.1414 71.8144C32.912 72.1544 32.4505 72.244 32.1106 72.0147L29.4261 75.9938ZM37.1205 74.4989C38.8325 71.9614 38.1632 68.5165 35.6257 66.8045L32.9411 70.7836C33.2811 71.013 33.3707 71.4745 33.1414 71.8144L37.1205 74.4989ZM35.6257 66.8045C33.2331 65.1904 31.2441 63.0474 29.8124 60.5415L25.6446 62.9226C27.4416 66.0679 29.9382 68.7577 32.9411 70.7836L35.6257 66.8045ZM29.8124 60.5415C29.5133 60.0178 29.2401 59.4813 28.9936 58.9338L24.6169 60.9047C24.9263 61.5919 25.2692 62.2654 25.6446 62.9226L29.8124 60.5415ZM25.5734 57.8595C24.5726 58.4581 23.4028 58.8027 22.1452 58.8027V63.6027C24.2943 63.6027 26.3124 63.0105 28.0371 61.979L25.5734 57.8595ZM22.1452 58.8027C21.7211 58.8027 21.3083 58.7635 20.9096 58.6893L20.0309 63.4081C20.718 63.5361 21.4249 63.6027 22.1452 63.6027V58.8027Z" fill="black" mask="url(#path-2-inside-1_2041_3851)"/>
<mask id="path-4-inside-2_2041_3851" fill="white">
<path fill-rule="evenodd" clip-rule="evenodd" d="M65.7845 29.1874C67.7918 26.8764 71.2924 26.6301 73.6034 28.6374C77.0663 31.6451 79.7907 35.4092 81.5658 39.6385C82.4863 41.8315 83.1387 44.1191 83.5147 46.4518C85.0197 48.0741 85.9398 50.2466 85.9398 52.6339C85.9398 55.4285 84.679 57.9287 82.6951 59.5965C82.0403 61.8369 81.1233 64.0003 79.9578 66.0403C77.6825 70.0229 74.5215 73.4285 70.7192 75.9938C68.1817 77.7057 64.7368 77.0365 63.0248 74.4989C61.3128 71.9614 61.9821 68.5165 64.5196 66.8045C66.9121 65.1904 68.9012 63.0474 70.3328 60.5415C70.5284 60.1992 70.7128 59.8515 70.8859 59.4988C68.9681 57.8318 67.7556 55.3745 67.7556 52.6339C67.7556 49.4868 69.3546 46.7131 71.7845 45.081C71.6507 44.6928 71.5041 44.3084 71.3447 43.9286C70.2277 41.2674 68.5134 38.8989 66.3345 37.0064C64.0234 34.9991 63.7772 31.4984 65.7845 29.1874ZM73.9525 44.0125C73.8297 43.672 73.6981 43.3343 73.5576 42.9997C72.2982 39.9991 70.3652 37.3284 67.9083 35.1944C66.598 34.0563 66.4583 32.0715 67.5964 30.7612C68.7345 29.4509 70.7193 29.3113 72.0296 30.4494C75.2145 33.2156 77.7202 36.6776 79.3528 40.5673C79.8717 41.8035 80.2979 43.0723 80.6298 44.3634C79.4782 43.8359 78.1973 43.5418 76.8477 43.5418C75.8355 43.5418 74.8619 43.7072 73.9525 44.0125ZM79.5732 61.3105C79.0932 62.5258 78.5258 63.7088 77.8739 64.8498C75.7813 68.5126 72.874 71.6449 69.3769 74.0042C67.9382 74.9749 65.985 74.5954 65.0143 73.1567C64.0437 71.7179 64.4231 69.7647 65.8619 68.7941C68.5596 66.974 70.8024 64.5577 72.4167 61.732C72.5867 61.4345 72.7492 61.1333 72.9042 60.8286C74.0971 61.4037 75.4348 61.726 76.8477 61.726C77.7972 61.726 78.7127 61.5805 79.5732 61.3105Z"/>
</mask>
<path d="M73.6034 28.6374L75.1772 26.8255V26.8255L73.6034 28.6374ZM65.7845 29.1874L67.5964 30.7612L67.5964 30.7612L65.7845 29.1874ZM81.5658 39.6385L83.7788 38.7096L81.5658 39.6385ZM83.5147 46.4518L81.7552 48.0841L81.261 47.5513L81.1453 46.8337L83.5147 46.4518ZM82.6951 59.5965L80.3915 58.9232L80.5951 58.2266L81.1507 57.7595L82.6951 59.5965ZM79.9578 66.0403L82.0417 67.2309H82.0417L79.9578 66.0403ZM70.7192 75.9938L69.3769 74.0042L69.3769 74.0042L70.7192 75.9938ZM63.0248 74.4989L61.0352 75.8412H61.0352L63.0248 74.4989ZM64.5196 66.8045L63.1773 64.815L64.5196 66.8045ZM70.3328 60.5415L72.4167 61.732V61.732L70.3328 60.5415ZM70.8859 59.4988L72.4604 57.6874L73.854 58.8987L73.0404 60.5563L70.8859 59.4988ZM71.7845 45.081L74.0536 44.2991L74.6548 46.0441L73.1227 47.0732L71.7845 45.081ZM71.3447 43.9286L73.5576 42.9997L73.5576 42.9998L71.3447 43.9286ZM66.3345 37.0064L67.9083 35.1944V35.1944L66.3345 37.0064ZM73.9525 44.0125L74.7163 46.2877L72.4912 47.0346L71.6949 44.8268L73.9525 44.0125ZM73.5576 42.9997L71.3447 43.9286L73.5576 42.9997ZM67.9083 35.1944L66.3345 37.0064L67.9083 35.1944ZM67.5964 30.7612L69.4084 32.335V32.335L67.5964 30.7612ZM72.0296 30.4494L70.4558 32.2613L70.4558 32.2613L72.0296 30.4494ZM79.3528 40.5673L81.5658 39.6385V39.6385L79.3528 40.5673ZM80.6298 44.3634L82.9543 43.7658L84.2077 48.642L79.6304 46.5454L80.6298 44.3634ZM79.5732 61.3105L78.8546 59.0206L83.6527 57.5149L81.8054 62.1921L79.5732 61.3105ZM77.8739 64.8498L79.9578 66.0403H79.9578L77.8739 64.8498ZM69.3769 74.0042L68.0347 72.0147L69.3769 74.0042ZM65.0143 73.1567L67.0039 71.8144L67.0039 71.8144L65.0143 73.1567ZM65.8619 68.7941L64.5196 66.8045H64.5196L65.8619 68.7941ZM72.4167 61.732L70.3328 60.5415L72.4167 61.732ZM72.9042 60.8286L70.7652 59.7403L71.8305 57.6466L73.9465 58.6668L72.9042 60.8286ZM72.0296 30.4494C70.7193 29.3113 68.7345 29.4509 67.5964 30.7612L63.9725 27.6136C66.849 24.3019 71.8655 23.949 75.1772 26.8255L72.0296 30.4494ZM79.3528 40.5673C77.7202 36.6776 75.2145 33.2156 72.0296 30.4494L75.1772 26.8255C78.9181 30.0746 81.8612 34.1409 83.7788 38.7096L79.3528 40.5673ZM81.1453 46.8337C80.7995 44.6883 80.1994 42.5843 79.3528 40.5673L83.7788 38.7096C84.7732 41.0787 85.478 43.5499 85.8841 46.0699L81.1453 46.8337ZM83.5398 52.6339C83.5398 50.8755 82.8648 49.2801 81.7552 48.0841L85.2742 44.8196C87.1746 46.8681 88.3398 49.6176 88.3398 52.6339H83.5398ZM81.1507 57.7595C82.6154 56.5281 83.5398 54.6901 83.5398 52.6339H88.3398C88.3398 56.1669 86.7426 59.3292 84.2396 61.4336L81.1507 57.7595ZM77.8739 64.8498C78.9459 62.9735 79.7893 60.9838 80.3915 58.9232L84.9988 60.2698C84.2914 62.69 83.3007 65.0271 82.0417 67.2309L77.8739 64.8498ZM69.3769 74.0042C72.874 71.6449 75.7813 68.5126 77.8739 64.8498L82.0417 67.2309C79.5838 71.5331 76.169 75.2122 72.0615 77.9833L69.3769 74.0042ZM65.0143 73.1567C65.985 74.5954 67.9382 74.9749 69.3769 74.0042L72.0615 77.9833C68.4251 80.4366 63.4885 79.4775 61.0352 75.8412L65.0143 73.1567ZM65.8619 68.7941C64.4231 69.7647 64.0437 71.7179 65.0143 73.1567L61.0352 75.8412C58.5819 72.2049 59.541 67.2683 63.1773 64.815L65.8619 68.7941ZM72.4167 61.732C70.8024 64.5577 68.5596 66.974 65.8619 68.7941L63.1773 64.815C65.2646 63.4068 66.9999 61.5372 68.249 59.3509L72.4167 61.732ZM73.0404 60.5563C72.8451 60.954 72.6372 61.3461 72.4167 61.732L68.249 59.3509C68.4195 59.0524 68.5804 58.749 68.7315 58.4412L73.0404 60.5563ZM70.1556 52.6339C70.1556 54.6506 71.0447 56.4568 72.4604 57.6874L69.3115 61.3101C66.8916 59.2068 65.3556 56.0983 65.3556 52.6339H70.1556ZM73.1227 47.0732C71.3282 48.2786 70.1556 50.3198 70.1556 52.6339H65.3556C65.3556 48.6538 67.381 45.1476 70.4463 43.0887L73.1227 47.0732ZM73.5576 42.9998C73.7374 43.428 73.9027 43.8614 74.0536 44.2991L69.5154 45.8628C69.3987 45.5241 69.2708 45.1888 69.1317 44.8574L73.5576 42.9998ZM67.9083 35.1944C70.3652 37.3284 72.2982 39.9991 73.5576 42.9997L69.1317 44.8574C68.1572 42.5358 66.6616 40.4694 64.7607 38.8183L67.9083 35.1944ZM67.5964 30.7612C66.4583 32.0715 66.598 34.0563 67.9083 35.1944L64.7607 38.8183C61.4489 35.9418 61.0961 30.9253 63.9725 27.6136L67.5964 30.7612ZM71.6949 44.8268C71.586 44.5248 71.4692 44.2253 71.3447 43.9286L75.7706 42.0709C75.9269 42.4434 76.0735 42.8193 76.2102 43.1982L71.6949 44.8268ZM71.3447 43.9286C70.2277 41.2674 68.5134 38.8989 66.3345 37.0064L69.4821 33.3825C72.217 35.7579 74.3686 38.7307 75.7706 42.0709L71.3447 43.9286ZM66.3345 37.0064C64.0234 34.9991 63.7772 31.4984 65.7845 29.1874L69.4084 32.335C69.1395 32.6446 69.1725 33.1135 69.4821 33.3825L66.3345 37.0064ZM65.7845 29.1874C67.7918 26.8764 71.2924 26.6301 73.6034 28.6374L70.4558 32.2613C70.1463 31.9924 69.6773 32.0254 69.4084 32.335L65.7845 29.1874ZM73.6034 28.6374C77.0663 31.6451 79.7907 35.4092 81.5658 39.6385L77.1399 41.4962C75.6497 37.9459 73.3627 34.7861 70.4558 32.2613L73.6034 28.6374ZM81.5658 39.6385C82.13 40.9825 82.5934 42.3621 82.9543 43.7658L78.3054 44.9609C78.0025 43.7825 77.6134 42.6245 77.1399 41.4962L81.5658 39.6385ZM79.6304 46.5454C78.786 46.1586 77.8454 45.9418 76.8477 45.9418V41.1418C78.5491 41.1418 80.1703 41.5131 81.6293 42.1814L79.6304 46.5454ZM76.8477 45.9418C76.0985 45.9418 75.3827 46.064 74.7163 46.2877L73.1888 41.7373C74.3411 41.3504 75.5725 41.1418 76.8477 41.1418V45.9418ZM81.8054 62.1921C81.2835 63.5135 80.6666 64.7997 79.9578 66.0403L75.79 63.6592C76.385 62.6178 76.9029 61.5381 77.341 60.4288L81.8054 62.1921ZM79.9578 66.0403C77.6825 70.0229 74.5215 73.4285 70.7192 75.9938L68.0347 72.0147C71.2265 69.8613 73.8801 67.0024 75.79 63.6592L79.9578 66.0403ZM70.7192 75.9938C68.1817 77.7057 64.7368 77.0365 63.0248 74.4989L67.0039 71.8144C67.2332 72.1544 67.6947 72.244 68.0347 72.0147L70.7192 75.9938ZM63.0248 74.4989C61.3128 71.9614 61.9821 68.5165 64.5196 66.8045L67.2041 70.7836C66.8642 71.013 66.7745 71.4745 67.0039 71.8144L63.0248 74.4989ZM64.5196 66.8045C66.9121 65.1904 68.9012 63.0474 70.3328 60.5415L74.5006 62.9226C72.7037 66.0679 70.2071 68.7577 67.2041 70.7836L64.5196 66.8045ZM70.3328 60.5415C70.4836 60.2776 70.6277 60.0105 70.7652 59.7403L75.0433 61.917C74.8708 62.2561 74.6898 62.5914 74.5006 62.9226L70.3328 60.5415ZM73.9465 58.6668C74.8213 59.0885 75.8034 59.326 76.8477 59.326V64.126C75.0662 64.126 73.373 63.719 71.862 62.9905L73.9465 58.6668ZM76.8477 59.326C77.5507 59.326 78.224 59.2184 78.8546 59.0206L80.2917 63.6004C79.2015 63.9425 78.0438 64.126 76.8477 64.126V59.326Z" fill="black" mask="url(#path-4-inside-2_2041_3851)"/>
<path fill-rule="evenodd" clip-rule="evenodd" d="M48.998 20.7225L48.836 27.3297L51.2352 27.3886L51.3972 20.7814L48.998 20.7225ZM40.6202 28.6219L38.449 22.3796L40.7158 21.5911L42.887 27.8335L40.6202 28.6219ZM58.9 28.6219L61.0712 22.3796L58.8044 21.5911L56.6332 27.8335L58.9 28.6219Z" fill="black"/>
<path fill-rule="evenodd" clip-rule="evenodd" d="M48.998 81.0099L48.836 74.4027L51.2352 74.3439L51.3972 80.9511L48.998 81.0099ZM40.6202 73.1105L38.449 79.3528L40.7158 80.1413L42.887 73.899L40.6202 73.1105ZM58.9 73.1105L61.0712 79.3528L58.8044 80.1413L56.6332 73.899L58.9 73.1105Z" fill="black"/>
</svg>
