<svg width="32" height="32" viewBox="0 0 32 32" fill="none" xmlns="http://www.w3.org/2000/svg">
<path d="M26.9811 15.9974C26.9811 16.2444 26.8877 16.4902 26.6995 16.6783L19.0247 24.3583C18.8427 24.5279 18.602 24.6202 18.3533 24.6158C18.1046 24.6115 17.8673 24.5107 17.6914 24.3348C17.5155 24.1589 17.4147 23.9216 17.4104 23.6729C17.406 23.4242 17.4983 23.1835 17.6679 23.0015L23.7095 16.9548H5.53858C5.28397 16.9548 5.03979 16.8537 4.85976 16.6736C4.67972 16.4936 4.57858 16.2494 4.57858 15.9948C4.57858 15.7402 4.67972 15.496 4.85976 15.316C5.03979 15.136 5.28397 15.0348 5.53858 15.0348H23.7005L17.6679 8.99834C17.5762 8.90974 17.5031 8.80378 17.4529 8.68663C17.4026 8.56948 17.3762 8.4435 17.3751 8.31603C17.3741 8.18856 17.3984 8.06216 17.4468 7.94421C17.4951 7.82625 17.5664 7.7191 17.6566 7.629C17.7468 7.53891 17.854 7.46768 17.972 7.41946C18.09 7.37125 18.2164 7.34702 18.3439 7.34818C18.4714 7.34935 18.5973 7.37589 18.7144 7.42626C18.8315 7.47663 18.9374 7.54981 19.0259 7.64154L26.6419 15.2614C26.7486 15.3515 26.8344 15.4638 26.8932 15.5905C26.952 15.7172 26.9824 15.8552 26.9824 15.9948L26.9811 15.9974Z" fill="black"/>
</svg>
