<svg width="33" height="33" viewBox="0 0 33 33" fill="none" xmlns="http://www.w3.org/2000/svg">
<path d="M8.40202 22.4397C7.98546 22.8562 7.98546 23.5316 8.40202 23.9482C8.81858 24.3647 9.49395 24.3647 9.91051 23.9482L16.2683 17.5904L22.6281 23.9502C23.0446 24.3668 23.72 24.3668 24.1366 23.9502C24.5531 23.5336 24.5531 22.8583 24.1366 22.4417L17.7797 16.0848L24.1366 9.72798C24.5531 9.31142 24.5531 8.63605 24.1366 8.21949C23.72 7.80293 23.0446 7.80293 22.6281 8.21949L16.2703 14.5772L9.91051 8.21745C9.49395 7.80089 8.81858 7.80089 8.40202 8.21745C7.98546 8.63401 7.98546 9.30938 8.40202 9.72594L14.7589 16.0828L8.40202 22.4397Z" fill="#1D1D1B"/>
</svg>
