<svg width="32" height="32" viewBox="0 0 32 32" fill="none" xmlns="http://www.w3.org/2000/svg">
<path d="M23.8673 22.3559C24.2838 22.7725 24.2838 23.4479 23.8673 23.8644C23.4507 24.281 22.7753 24.281 22.3588 23.8644L16.001 17.5067L9.64123 23.8665C9.22467 24.283 8.54929 24.283 8.13273 23.8665C7.71617 23.4499 7.71617 22.7745 8.13273 22.358L14.4896 16.0011L8.13273 9.64424C7.71617 9.22768 7.71617 8.55231 8.13273 8.13575C8.54929 7.71919 9.22467 7.71919 9.64123 8.13575L15.999 14.4935L22.3588 8.13371C22.7753 7.71715 23.4507 7.71715 23.8673 8.13371C24.2838 8.55027 24.2838 9.22564 23.8673 9.6422L17.5104 15.9991L23.8673 22.3559Z" fill="white"/>
</svg>
