<svg width="24" height="24" viewBox="0 0 24 24" fill="none" xmlns="http://www.w3.org/2000/svg">
<path fill-rule="evenodd" clip-rule="evenodd" d="M12.0625 2.75C12.4767 2.75 12.8125 3.08579 12.8125 3.5V13.6893L15.0322 11.4697C15.3251 11.1768 15.7999 11.1768 16.0928 11.4697C16.3857 11.7626 16.3857 12.2374 16.0928 12.5303L12.5928 16.0303C12.2999 16.3232 11.8251 16.3232 11.5322 16.0303L8.03217 12.5303C7.73928 12.2374 7.73928 11.7626 8.03217 11.4697C8.32506 11.1768 8.79994 11.1768 9.09283 11.4697L11.3125 13.6893V3.5C11.3125 3.08579 11.6483 2.75 12.0625 2.75ZM5.3125 19.5C5.3125 19.0858 5.64829 18.75 6.0625 18.75H18.0625C18.4767 18.75 18.8125 19.0858 18.8125 19.5C18.8125 19.9142 18.4767 20.25 18.0625 20.25H6.0625C5.64829 20.25 5.3125 19.9142 5.3125 19.5Z" fill="#1D1D1B"/>
</svg>
