<svg width="25" height="24" viewBox="0 0 25 24" fill="none" xmlns="http://www.w3.org/2000/svg">
<path fill-rule="evenodd" clip-rule="evenodd" d="M12.187 20C16.6053 20 20.187 16.4183 20.187 12C20.187 7.58172 16.6053 4 12.187 4C7.76873 4 4.18701 7.58172 4.18701 12C4.18701 16.4183 7.76873 20 12.187 20ZM8.72652 8.60213C8.50685 8.8218 8.50685 9.17796 8.72652 9.39762L11.3924 12.0635L8.72652 14.7295C8.50685 14.9491 8.50685 15.3053 8.72652 15.525C8.94619 15.7446 9.30235 15.7446 9.52201 15.525L12.1879 12.859L14.8539 15.525C15.0735 15.7446 15.4297 15.7446 15.6494 15.525C15.869 15.3053 15.869 14.9491 15.6494 14.7295L12.9834 12.0635L15.6494 9.39762C15.869 9.17796 15.869 8.8218 15.6494 8.60213C15.4297 8.38246 15.0735 8.38246 14.8539 8.60213L12.1879 11.2681L9.52201 8.60213C9.30235 8.38246 8.94619 8.38246 8.72652 8.60213Z" fill="#D8D8D5"/>
</svg>
