<svg width="130" height="64" viewBox="0 0 130 64" fill="none" xmlns="http://www.w3.org/2000/svg">
<rect x="1" y="1" width="128" height="62" rx="7" fill="white"/>
<rect x="1" y="1" width="128" height="62" rx="7" stroke="#1D1D1B" stroke-width="2"/>
<path d="M30.9388 22.4609C34.1731 22.4609 36.6341 24.4766 36.6341 27.3359C36.6341 30.1484 34.1731 32.1875 30.9388 32.1875C27.6341 32.1875 25.1966 30.1484 25.1966 27.3359C25.1966 24.4766 27.6341 22.4609 30.9388 22.4609ZM30.9388 24.8984C29.2981 24.8984 28.0794 25.7891 28.1028 27.3359C28.0794 28.8594 29.2981 29.7734 30.9388 29.7734C32.5559 29.7734 33.7513 28.8594 33.7513 27.3359C33.7513 25.7891 32.5559 24.8984 30.9388 24.8984ZM42.7278 21.8281V32.5156H39.7278V21.8281H42.7278ZM42.7278 33.4062V39.1953H31.3841V40.5781H43.3138V42.9219H28.4544V37.0156H39.7513V35.7031H28.4075V33.4062H42.7278ZM53.4275 26.6562C53.4275 30.5703 55.2088 34.5078 58.8181 36.0312L57.0603 38.4219C54.6228 37.3203 52.9353 35.1992 51.9744 32.5625C51.0017 35.4336 49.2556 37.7539 46.6541 38.9375L44.8494 36.4531C48.5759 34.8828 50.3806 30.8047 50.4041 26.6562V23.4688H53.4275V26.6562ZM62.99 21.8281V43.2031H59.9666V21.8281H62.99ZM83.8381 24.0312V26.4453H66.3303V24.0312H73.6194V21.8047H76.5959V24.0312H83.8381ZM84.9163 35.6094V38.0469H76.5959V43.1797H73.6194V38.0469H65.3928V35.6094H84.9163ZM75.1194 27.2656C79.6897 27.2656 82.4553 28.5547 82.4788 30.9219C82.4553 33.2891 79.6897 34.5781 75.1194 34.5781C70.5022 34.5781 67.7366 33.2891 67.76 30.9219C67.7366 28.5547 70.5022 27.2656 75.1194 27.2656ZM75.1194 29.4688C72.26 29.4922 70.8538 29.9375 70.8538 30.9219C70.8538 31.8828 72.26 32.3516 75.1194 32.3516C77.9319 32.3516 79.3616 31.8828 79.3616 30.9219C79.3616 29.9375 77.9319 29.4922 75.1194 29.4688ZM103.725 21.8516V37.9531H100.725V36.2656H96.6472V34.2266H100.725V21.8516H103.725ZM104.194 40.3906V42.7812H88.3034V36.4062H91.28V33.5703C89.3698 33.6523 87.5534 33.6641 85.9363 33.6641L85.5847 31.2969C89.4988 31.2734 94.7722 31.2266 99.2722 30.6641L99.4363 32.7969C97.7488 33.0781 96.0027 33.2773 94.28 33.4062V37.4609H91.28V40.3906H104.194ZM92.5222 22.5781C95.6159 22.5547 97.8425 24.125 97.8425 26.3984C97.8425 28.6719 95.6159 30.1484 92.5222 30.1484C89.3581 30.1484 87.155 28.6719 87.155 26.3984C87.155 24.125 89.3347 22.5547 92.5222 22.5781ZM92.5222 24.7578C90.9988 24.7578 89.9675 25.3438 89.9909 26.3984C89.9675 27.4297 90.9988 27.9922 92.5222 27.9922C93.9519 27.9922 94.9831 27.4297 95.0066 26.3984C94.9831 25.3438 93.9519 24.7578 92.5222 24.7578Z" fill="#1D1D1B"/>
</svg>
