<svg width="1060" height="376" viewBox="0 0 1060 376" fill="none" xmlns="http://www.w3.org/2000/svg">
<path d="M514.967 228.555H586.685V261.107L585.747 262.047C567.916 280.153 542.676 290.146 514.67 290.146C486.664 290.146 461.326 280.054 441.272 260.167C420.972 240.428 410.649 216.138 410.649 187.989C410.649 159.84 420.972 135.501 441.272 115.564C461.375 95.6271 486.121 85.535 514.72 85.535C541.54 85.535 568.114 96.2207 588.068 115.02L650.501 56.8914C617.803 20.6788 568.509 0 514.72 0C460.931 0 416.477 18.5021 379.333 54.9126C342.042 91.521 323.124 136.292 323.124 187.94C323.124 239.587 342.042 284.259 379.333 320.719C416.477 357.328 462.017 375.879 514.72 375.879C547.023 375.879 577.696 368.211 605.85 353.123C634.695 337.886 657.713 317.009 674.259 291.037V154.695H515.214L514.967 228.456V228.555Z" fill="white"/>
<path d="M1059.53 12.6152H966.033V145.543H1059.53V12.6152Z" fill="white"/>
<path d="M191.997 290.147C163.399 290.147 138.702 280.153 118.55 260.415C98.2494 240.478 87.9263 216.138 87.9263 187.989C87.9263 159.84 98.2494 135.501 118.55 115.564C138.653 95.8253 163.349 85.8321 191.997 85.8321C217.978 85.8321 243.119 95.479 262.333 112.349L325.803 53.3298C288.66 19.3928 240.403 0.0498047 192.047 0.0498047C139.344 0.0498047 93.804 18.6014 56.6604 55.2592C19.3687 91.7192 0.451172 136.391 0.451172 188.039C0.451172 239.686 19.3687 284.457 56.6604 321.066C93.804 357.526 139.344 375.978 192.047 375.978C244.749 375.978 282.733 362.077 325.013 325.221L261.296 265.955C240.452 282.33 218.225 290.147 191.997 290.147Z" fill="white"/>
<path d="M799.296 12.7139H718.044V362.176H806.754V160.928L970.788 362.176H1059.55V229.248H973.554L799.296 12.7139Z" fill="white"/>
</svg>
