<svg width="1920" height="276" viewBox="0 0 1920 276" fill="none" xmlns="http://www.w3.org/2000/svg">
<g clip-path="url(#clip0_1_35)">
<rect width="1920" height="276" fill="#FF6B00"/>
<path d="M1724.85 95.7672V0.0371094L1629.33 0.0371094V95.7672H1724.85Z" fill="#FF8829"/>
<path d="M1629.29 95.7301V0L1533.77 0V95.7301H1629.29Z" fill="#FF7C00"/>
<path d="M1533.77 95.7303V0L1438.25 0V95.7303H1533.77Z" fill="#FF7D00"/>
<path d="M1342.69 95.7301V0L1247.17 0V95.7301H1342.69Z" fill="#FF7200"/>
<path d="M1247.16 95.7303V0L1151.64 0V95.7303H1247.16Z" fill="#FF7C00"/>
<path d="M1629.34 191.46V95.7297H1533.82V191.46H1629.34Z" fill="#FF7700"/>
<path d="M1438.26 191.46V95.7297H1342.74V191.46H1438.26Z" fill="#FF7500"/>
<path d="M1151.61 191.46V95.7297H1056.08V191.46H1151.61Z" fill="#FF7500"/>
<path d="M1533.77 287.229V191.499H1438.25V287.229H1533.77Z" fill="#FF7C00"/>
<path d="M1438.26 287.191V191.461H1342.74V287.191H1438.26Z" fill="#FF7C00"/>
<path d="M1151.64 287.229V191.499H1056.11V287.229H1151.64Z" fill="#FF8829"/>
<path d="M769.432 95.7301V0L673.909 0V95.7301H769.432Z" fill="#FF7C00"/>
<path d="M865.002 95.7673V0.0371094L769.479 0.0371094V95.7673H865.002Z" fill="#FF7C00"/>
<path d="M960.527 95.7303V0L865.004 0V95.7303H960.527Z" fill="#FF7C00"/>
<path d="M673.921 191.498V95.7679H578.398V191.498H673.921Z" fill="#FF7C00"/>
<path d="M769.476 191.46V95.7297H673.953V191.46H769.476Z" fill="#FF7500"/>
<path d="M960.557 191.46V95.7297H865.034V191.46H960.557Z" fill="#FF7C00"/>
<path d="M673.921 287.229V191.499H578.398V287.229H673.921Z" fill="#FF7C00"/>
<path d="M769.476 287.191V191.461H673.953V287.191H769.476Z" fill="#FF8829"/>
<path d="M865.002 287.229V191.499H769.479V287.229H865.002Z" fill="#FF7500"/>
<path d="M960.557 287.229V191.499H865.034V287.229H960.557Z" fill="#FF7500"/>
<path d="M291.79 191.498V287.228H387.313V191.498H291.79Z" fill="#FF7C00"/>
<path d="M196.219 191.498V287.228H291.742V191.498H196.219Z" fill="#FF8829"/>
<path d="M100.694 191.498V287.228H196.217V191.498H100.694Z" fill="#FF7500"/>
<path d="M5.13843 191.498L5.13843 287.228H100.662V191.498H5.13843Z" fill="#FF7500"/>
<path d="M387.3 95.7312V191.461H482.823V95.7312H387.3Z" fill="#FF7C00"/>
<path d="M196.264 95.7312V191.461H291.787V95.7312H196.264Z" fill="#FF7C00"/>
<path d="M5.18286 95.7683L5.18286 191.499H100.706V95.7683H5.18286Z" fill="#FF7C00"/>
<path d="M291.79 0.037674V95.7679H387.313V0.037674H291.79Z" fill="#FF7200"/>
<path d="M196.264 -0.000434875V95.7297H291.787V-0.000434875H196.264Z" fill="#FF7C00"/>
<path d="M100.694 0.0377884V95.7679H196.217V0.0377884H100.694Z" fill="#FF6B00"/>
<path d="M5.18286 -0.000549316L5.18286 95.7297H100.706V-0.000549316H5.18286Z" fill="#FF6B00"/>
<path d="M1724.86 191.498V287.228H1820.39V191.498H1724.86Z" fill="#FF7C00"/>
<path d="M1820.42 191.498V287.228H1915.94V191.498H1820.42Z" fill="#FF7C00"/>
<path d="M1820.42 95.7684V191.499H1915.94V95.7684H1820.42Z" fill="#FF8829"/>
<path d="M1724.9 -0.000663757V95.7297H1820.42V-0.000663757H1724.9Z" fill="#FF7C00"/>
<path d="M100.694 0.0377884V95.7679H196.217V0.0377884H100.694Z" fill="#FF7500"/>
<path d="M1820.42 0.0377884V95.7679H1915.94V0.0377884H1820.42Z" fill="#FF7200"/>
<rect x="482.872" width="955.374" height="276" fill="#FF6B00"/>
</g>
<defs>
<clipPath id="clip0_1_35">
<rect width="1920" height="276" fill="white"/>
</clipPath>
</defs>
</svg>
