<svg width="110" height="60" viewBox="0 0 110 60" fill="none" xmlns="http://www.w3.org/2000/svg">
<rect x="1" y="1" width="108" height="58" rx="7" fill="white"/>
<rect x="1" y="1" width="108" height="58" rx="7" stroke="#1D1D1B" stroke-width="2"/>
<path d="M38.1138 21.6211V31.1133H35.8813V27.334H33.3852V25.5234H35.8813V21.6211H38.1138ZM32.647 31.4648C36.0571 31.4824 38.1489 32.6074 38.1665 34.5586C38.1489 36.4922 36.0571 37.6348 32.647 37.6348C29.2368 37.6348 27.145 36.4922 27.145 34.5586C27.145 32.6074 29.2368 31.4824 32.647 31.4648ZM32.647 33.1875C30.52 33.1875 29.3774 33.627 29.3774 34.5586C29.3774 35.4727 30.52 35.9297 32.647 35.9297C34.7739 35.9297 35.9341 35.4727 35.9341 34.5586C35.9341 33.627 34.7739 33.1875 32.647 33.1875ZM33.8598 22.5879V24.3809H30.6782C30.7309 26.2441 31.8559 28.125 34.352 28.9512L33.2446 30.709C31.478 30.1377 30.2651 28.9775 29.5708 27.5273C28.8589 29.1621 27.5845 30.4805 25.686 31.1309L24.5259 29.3555C27.1538 28.4766 28.3315 26.3848 28.393 24.3809H25.1763V22.5879H33.8598ZM53.4552 21.6211V37.6172H51.1877V21.6211H53.4552ZM48.6564 23.291C48.6564 28.1426 46.9513 32.168 41.2384 34.875L40.0607 33.082C44.1916 31.1309 46.0109 28.5996 46.3713 25.0488H40.922V23.291H48.6564ZM69.2186 23.2734V25.084H56.0877V23.2734H61.5545V21.6035H63.787V23.2734H69.2186ZM70.0272 31.957V33.7852H63.787V37.6348H61.5545V33.7852H55.3846V31.957H70.0272ZM62.6795 25.6992C66.1073 25.6992 68.1815 26.666 68.1991 28.4414C68.1815 30.2168 66.1073 31.1836 62.6795 31.1836C59.2166 31.1836 57.1424 30.2168 57.16 28.4414C57.1424 26.666 59.2166 25.6992 62.6795 25.6992ZM62.6795 27.3516C60.535 27.3691 59.4803 27.7031 59.4803 28.4414C59.4803 29.1621 60.535 29.5137 62.6795 29.5137C64.7889 29.5137 65.8612 29.1621 65.8612 28.4414C65.8612 27.7031 64.7889 27.3691 62.6795 27.3516ZM84.314 21.6387V33.7148H82.064V32.4492H79.0054V30.9199H82.064V21.6387H84.314ZM84.6655 35.543V37.3359H72.7476V32.5547H74.98V30.4277C73.5474 30.4893 72.1851 30.498 70.9722 30.498L70.7085 28.7227C73.6441 28.7051 77.5991 28.6699 80.9741 28.248L81.0972 29.8477C79.8316 30.0586 78.522 30.208 77.23 30.3047V33.3457H74.98V35.543H84.6655ZM75.9116 22.1836C78.232 22.166 79.9019 23.3438 79.9019 25.0488C79.9019 26.7539 78.232 27.8613 75.9116 27.8613C73.5386 27.8613 71.8862 26.7539 71.8862 25.0488C71.8862 23.3438 73.521 22.166 75.9116 22.1836ZM75.9116 23.8184C74.7691 23.8184 73.9956 24.2578 74.0132 25.0488C73.9956 25.8223 74.7691 26.2441 75.9116 26.2441C76.9839 26.2441 77.7573 25.8223 77.7749 25.0488C77.7573 24.2578 76.9839 23.8184 75.9116 23.8184Z" fill="#1D1D1B"/>
</svg>
