<svg width="110" height="60" viewBox="0 0 110 60" fill="none" xmlns="http://www.w3.org/2000/svg">
<rect x="1" y="1" width="108" height="58" rx="7" fill="white"/>
<rect x="1" y="1" width="108" height="58" rx="7" stroke="#1D1D1B" stroke-width="2"/>
<path d="M29.1841 22.0957C31.6098 22.0957 33.4555 23.6074 33.4555 25.752C33.4555 27.8613 31.6098 29.3906 29.1841 29.3906C26.7055 29.3906 24.8774 27.8613 24.8774 25.752C24.8774 23.6074 26.7055 22.0957 29.1841 22.0957ZM29.1841 23.9238C27.9536 23.9238 27.0395 24.5918 27.0571 25.752C27.0395 26.8945 27.9536 27.5801 29.1841 27.5801C30.397 27.5801 31.2934 26.8945 31.2934 25.752C31.2934 24.5918 30.397 23.9238 29.1841 23.9238ZM38.0259 21.6211V29.6367H35.7759V21.6211H38.0259ZM38.0259 30.3047V34.6465H29.518V35.6836H38.4653V37.4414H27.3208V33.0117H35.7934V32.0273H27.2856V30.3047H38.0259ZM46.2306 25.2422C46.2306 28.1777 47.5666 31.1309 50.2736 32.2734L48.9552 34.0664C47.1271 33.2402 45.8615 31.6494 45.1408 29.6719C44.4113 31.8252 43.1017 33.5654 41.1505 34.4531L39.797 32.5898C42.592 31.4121 43.9455 28.3535 43.963 25.2422V22.8516H46.2306V25.2422ZM53.4025 21.6211V37.6523H51.1349V21.6211H53.4025ZM69.2186 23.2734V25.084H56.0877V23.2734H61.5545V21.6035H63.787V23.2734H69.2186ZM70.0272 31.957V33.7852H63.787V37.6348H61.5545V33.7852H55.3846V31.957H70.0272ZM62.6795 25.6992C66.1073 25.6992 68.1815 26.666 68.1991 28.4414C68.1815 30.2168 66.1073 31.1836 62.6795 31.1836C59.2166 31.1836 57.1424 30.2168 57.16 28.4414C57.1424 26.666 59.2166 25.6992 62.6795 25.6992ZM62.6795 27.3516C60.535 27.3691 59.4803 27.7031 59.4803 28.4414C59.4803 29.1621 60.535 29.5137 62.6795 29.5137C64.7889 29.5137 65.8612 29.1621 65.8612 28.4414C65.8612 27.7031 64.7889 27.3691 62.6795 27.3516ZM84.314 21.6387V33.7148H82.064V32.4492H79.0054V30.9199H82.064V21.6387H84.314ZM84.6655 35.543V37.3359H72.7476V32.5547H74.98V30.4277C73.5474 30.4893 72.1851 30.498 70.9722 30.498L70.7085 28.7227C73.6441 28.7051 77.5991 28.6699 80.9741 28.248L81.0972 29.8477C79.8316 30.0586 78.522 30.208 77.23 30.3047V33.3457H74.98V35.543H84.6655ZM75.9116 22.1836C78.232 22.166 79.9019 23.3438 79.9019 25.0488C79.9019 26.7539 78.232 27.8613 75.9116 27.8613C73.5386 27.8613 71.8862 26.7539 71.8862 25.0488C71.8862 23.3438 73.521 22.166 75.9116 22.1836ZM75.9116 23.8184C74.7691 23.8184 73.9956 24.2578 74.0132 25.0488C73.9956 25.8223 74.7691 26.2441 75.9116 26.2441C76.9839 26.2441 77.7573 25.8223 77.7749 25.0488C77.7573 24.2578 76.9839 23.8184 75.9116 23.8184Z" fill="#1D1D1B"/>
</svg>
