<svg width="130" height="64" viewBox="0 0 130 64" fill="none" xmlns="http://www.w3.org/2000/svg">
<rect x="1" y="1" width="128" height="62" rx="7" fill="white"/>
<rect x="1" y="1" width="128" height="62" rx="7" stroke="#1D1D1B" stroke-width="2"/>
<path d="M44.3216 31.6484V34.0625H24.8684V31.6484H44.3216ZM34.5716 35.2578C39.1888 35.2578 41.9778 36.7109 42.0013 39.2188C41.9778 41.75 39.1888 43.1562 34.5716 43.1562C29.9075 43.1562 27.095 41.75 27.095 39.2188C27.095 36.7109 29.9075 35.2578 34.5716 35.2578ZM34.5716 37.5781C31.6184 37.5781 30.1184 38.0938 30.1419 39.2188C30.1184 40.3203 31.6184 40.8359 34.5716 40.8359C37.4544 40.8359 38.9778 40.3203 39.0013 39.2188C38.9778 38.0938 37.4544 37.5781 34.5716 37.5781ZM42.5638 22.8125V25.2031H36.7513C37.2317 26.6914 39.3997 28.168 43.5013 28.5312L42.4466 30.875C38.427 30.4883 35.7083 28.9648 34.5716 26.8906C33.4466 28.9648 30.7747 30.4883 26.72 30.875L25.7356 28.5312C29.7434 28.168 31.9348 26.7031 32.4388 25.2031H26.6497V22.8125H42.5638ZM50.1228 23.1172C52.9588 23.1172 55.0447 25.2734 55.0681 28.3203C55.0447 31.4141 52.9588 33.5 50.1228 33.5C47.2869 33.5 45.2244 31.4141 45.2244 28.3203C45.2244 25.2734 47.2869 23.1172 50.1228 23.1172ZM50.1228 25.6484C48.8103 25.6484 47.8963 26.6328 47.8963 28.3203C47.8963 30.0078 48.8103 31.0156 50.1228 31.0156C51.4119 31.0156 52.3259 30.0078 52.3494 28.3203C52.3259 26.6328 51.4119 25.6484 50.1228 25.6484ZM63.4588 21.8516V34.5781H60.6228V29.3984H58.865V34.4609H56.0994V22.2266H58.865V27.0078H60.6228V21.8516H63.4588ZM63.4588 35.5156V43.1562H60.4822V37.9062H48.7166V35.5156H63.4588ZM83.8381 24.0312V26.4453H66.3303V24.0312H73.6194V21.8047H76.5959V24.0312H83.8381ZM84.9163 35.6094V38.0469H76.5959V43.1797H73.6194V38.0469H65.3928V35.6094H84.9163ZM75.1194 27.2656C79.6897 27.2656 82.4553 28.5547 82.4788 30.9219C82.4553 33.2891 79.6897 34.5781 75.1194 34.5781C70.5022 34.5781 67.7366 33.2891 67.76 30.9219C67.7366 28.5547 70.5022 27.2656 75.1194 27.2656ZM75.1194 29.4688C72.26 29.4922 70.8538 29.9375 70.8538 30.9219C70.8538 31.8828 72.26 32.3516 75.1194 32.3516C77.9319 32.3516 79.3616 31.8828 79.3616 30.9219C79.3616 29.9375 77.9319 29.4922 75.1194 29.4688ZM103.725 21.8516V37.9531H100.725V36.2656H96.6472V34.2266H100.725V21.8516H103.725ZM104.194 40.3906V42.7812H88.3034V36.4062H91.28V33.5703C89.3698 33.6523 87.5534 33.6641 85.9363 33.6641L85.5847 31.2969C89.4988 31.2734 94.7722 31.2266 99.2722 30.6641L99.4363 32.7969C97.7488 33.0781 96.0027 33.2773 94.28 33.4062V37.4609H91.28V40.3906H104.194ZM92.5222 22.5781C95.6159 22.5547 97.8425 24.125 97.8425 26.3984C97.8425 28.6719 95.6159 30.1484 92.5222 30.1484C89.3581 30.1484 87.155 28.6719 87.155 26.3984C87.155 24.125 89.3347 22.5547 92.5222 22.5781ZM92.5222 24.7578C90.9988 24.7578 89.9675 25.3438 89.9909 26.3984C89.9675 27.4297 90.9988 27.9922 92.5222 27.9922C93.9519 27.9922 94.9831 27.4297 95.0066 26.3984C94.9831 25.3438 93.9519 24.7578 92.5222 24.7578Z" fill="#1D1D1B"/>
</svg>
