<svg width="110" height="60" viewBox="0 0 110 60" fill="none" xmlns="http://www.w3.org/2000/svg">
<rect x="1" y="1" width="108" height="58" rx="7" fill="white"/>
<rect x="1" y="1" width="108" height="58" rx="7" stroke="#1D1D1B" stroke-width="2"/>
<path d="M39.2212 28.9863V30.7969H24.6313V28.9863H39.2212ZM31.9087 31.6934C35.3716 31.6934 37.4634 32.7832 37.4809 34.6641C37.4634 36.5625 35.3716 37.6172 31.9087 37.6172C28.4106 37.6172 26.3013 36.5625 26.3013 34.6641C26.3013 32.7832 28.4106 31.6934 31.9087 31.6934ZM31.9087 33.4336C29.6938 33.4336 28.5688 33.8203 28.5864 34.6641C28.5688 35.4902 29.6938 35.877 31.9087 35.877C34.0708 35.877 35.2134 35.4902 35.2309 34.6641C35.2134 33.8203 34.0708 33.4336 31.9087 33.4336ZM37.9028 22.3594V24.1523H33.5434C33.9038 25.2686 35.5298 26.376 38.6059 26.6484L37.8149 28.4062C34.8003 28.1162 32.7612 26.9736 31.9087 25.418C31.0649 26.9736 29.061 28.1162 26.02 28.4062L25.2817 26.6484C28.2876 26.376 29.9311 25.2773 30.3091 24.1523H25.9673V22.3594H37.9028ZM43.7521 22.5879C45.8791 22.5879 47.4435 24.2051 47.4611 26.4902C47.4435 28.8105 45.8791 30.375 43.7521 30.375C41.6252 30.375 40.0783 28.8105 40.0783 26.4902C40.0783 24.2051 41.6252 22.5879 43.7521 22.5879ZM43.7521 24.4863C42.7677 24.4863 42.0822 25.2246 42.0822 26.4902C42.0822 27.7559 42.7677 28.5117 43.7521 28.5117C44.7189 28.5117 45.4045 27.7559 45.422 26.4902C45.4045 25.2246 44.7189 24.4863 43.7521 24.4863ZM53.7541 21.6387V31.1836H51.6271V27.2988H50.3088V31.0957H48.2345V21.9199H50.3088V25.5059H51.6271V21.6387H53.7541ZM53.7541 31.8867V37.6172H51.5216V33.6797H42.6974V31.8867H53.7541ZM69.2186 23.2734V25.084H56.0877V23.2734H61.5545V21.6035H63.787V23.2734H69.2186ZM70.0272 31.957V33.7852H63.787V37.6348H61.5545V33.7852H55.3846V31.957H70.0272ZM62.6795 25.6992C66.1073 25.6992 68.1815 26.666 68.1991 28.4414C68.1815 30.2168 66.1073 31.1836 62.6795 31.1836C59.2166 31.1836 57.1424 30.2168 57.16 28.4414C57.1424 26.666 59.2166 25.6992 62.6795 25.6992ZM62.6795 27.3516C60.535 27.3691 59.4803 27.7031 59.4803 28.4414C59.4803 29.1621 60.535 29.5137 62.6795 29.5137C64.7889 29.5137 65.8612 29.1621 65.8612 28.4414C65.8612 27.7031 64.7889 27.3691 62.6795 27.3516ZM84.314 21.6387V33.7148H82.064V32.4492H79.0054V30.9199H82.064V21.6387H84.314ZM84.6655 35.543V37.3359H72.7476V32.5547H74.98V30.4277C73.5474 30.4893 72.1851 30.498 70.9722 30.498L70.7085 28.7227C73.6441 28.7051 77.5991 28.6699 80.9741 28.248L81.0972 29.8477C79.8316 30.0586 78.522 30.208 77.23 30.3047V33.3457H74.98V35.543H84.6655ZM75.9116 22.1836C78.232 22.166 79.9019 23.3438 79.9019 25.0488C79.9019 26.7539 78.232 27.8613 75.9116 27.8613C73.5386 27.8613 71.8862 26.7539 71.8862 25.0488C71.8862 23.3438 73.521 22.166 75.9116 22.1836ZM75.9116 23.8184C74.7691 23.8184 73.9956 24.2578 74.0132 25.0488C73.9956 25.8223 74.7691 26.2441 75.9116 26.2441C76.9839 26.2441 77.7573 25.8223 77.7749 25.0488C77.7573 24.2578 76.9839 23.8184 75.9116 23.8184Z" fill="#1D1D1B"/>
</svg>
