<svg width="130" height="64" viewBox="0 0 130 64" fill="none" xmlns="http://www.w3.org/2000/svg">
<rect x="1" y="1" width="128" height="62" rx="7" fill="white"/>
<rect x="1" y="1" width="128" height="62" rx="7" stroke="#1D1D1B" stroke-width="2"/>
<path d="M42.845 21.8281V34.4844H39.8684V29.4453H36.5403V27.0312H39.8684V21.8281H42.845ZM35.5559 34.9531C40.1028 34.9766 42.8919 36.4766 42.9153 39.0781C42.8919 41.6562 40.1028 43.1797 35.5559 43.1797C31.0091 43.1797 28.22 41.6562 28.22 39.0781C28.22 36.4766 31.0091 34.9766 35.5559 34.9531ZM35.5559 37.25C32.72 37.25 31.1966 37.8359 31.1966 39.0781C31.1966 40.2969 32.72 40.9062 35.5559 40.9062C38.3919 40.9062 39.9388 40.2969 39.9388 39.0781C39.9388 37.8359 38.3919 37.25 35.5559 37.25ZM37.1731 23.1172V25.5078H32.9309C33.0013 27.9922 34.5013 30.5 37.8294 31.6016L36.3528 33.9453C33.9973 33.1836 32.3802 31.6367 31.4544 29.7031C30.5052 31.8828 28.8059 33.6406 26.2747 34.5078L24.7278 32.1406C28.2317 30.9688 29.802 28.1797 29.8841 25.5078H25.595V23.1172H37.1731ZM63.0603 21.8281V43.1562H60.0369V21.8281H63.0603ZM56.6619 24.0547C56.6619 30.5234 54.3884 35.8906 46.7713 39.5L45.2009 37.1094C50.7088 34.5078 53.1345 31.1328 53.615 26.3984H46.3494V24.0547H56.6619ZM83.8381 24.0312V26.4453H66.3303V24.0312H73.6194V21.8047H76.5959V24.0312H83.8381ZM84.9163 35.6094V38.0469H76.5959V43.1797H73.6194V38.0469H65.3928V35.6094H84.9163ZM75.1194 27.2656C79.6897 27.2656 82.4553 28.5547 82.4788 30.9219C82.4553 33.2891 79.6897 34.5781 75.1194 34.5781C70.5022 34.5781 67.7366 33.2891 67.76 30.9219C67.7366 28.5547 70.5022 27.2656 75.1194 27.2656ZM75.1194 29.4688C72.26 29.4922 70.8538 29.9375 70.8538 30.9219C70.8538 31.8828 72.26 32.3516 75.1194 32.3516C77.9319 32.3516 79.3616 31.8828 79.3616 30.9219C79.3616 29.9375 77.9319 29.4922 75.1194 29.4688ZM103.725 21.8516V37.9531H100.725V36.2656H96.6472V34.2266H100.725V21.8516H103.725ZM104.194 40.3906V42.7812H88.3034V36.4062H91.28V33.5703C89.3698 33.6523 87.5534 33.6641 85.9363 33.6641L85.5847 31.2969C89.4988 31.2734 94.7722 31.2266 99.2722 30.6641L99.4363 32.7969C97.7488 33.0781 96.0027 33.2773 94.28 33.4062V37.4609H91.28V40.3906H104.194ZM92.5222 22.5781C95.6159 22.5547 97.8425 24.125 97.8425 26.3984C97.8425 28.6719 95.6159 30.1484 92.5222 30.1484C89.3581 30.1484 87.155 28.6719 87.155 26.3984C87.155 24.125 89.3347 22.5547 92.5222 22.5781ZM92.5222 24.7578C90.9988 24.7578 89.9675 25.3438 89.9909 26.3984C89.9675 27.4297 90.9988 27.9922 92.5222 27.9922C93.9519 27.9922 94.9831 27.4297 95.0066 26.3984C94.9831 25.3438 93.9519 24.7578 92.5222 24.7578Z" fill="#1D1D1B"/>
</svg>
