<svg width="87" height="70" viewBox="0 0 87 70" fill="none" xmlns="http://www.w3.org/2000/svg">
<path d="M45.4067 57.9437C51.6993 56.1961 56.5936 53.1379 60.0896 48.769C63.4107 44.4001 65.0713 39.0701 65.0713 32.7789H51.1749V0.274414H86.5713V27.2741C86.5713 31.643 85.9595 36.0119 84.7359 40.3808C83.3375 44.9244 81.1526 49.1185 78.181 52.9632C75.2095 56.9825 71.364 60.4776 66.6445 63.4485C61.9249 66.4193 56.2441 68.429 49.6018 69.4775L45.4067 57.9437ZM0.571281 57.9437C7.03876 56.1961 11.9331 53.1379 15.2542 48.769C18.5754 44.4001 20.2359 39.0701 20.2359 32.7789H6.33958V0.274414H41.4737V27.2741C41.4737 31.643 40.8619 36.0119 39.6384 40.3808C38.24 44.9244 36.055 49.1185 33.0835 52.9632C30.1119 56.9825 26.3538 60.4776 21.8091 63.4485C17.0896 66.4193 11.3213 68.429 4.50421 69.4775L0.571281 57.9437Z" fill="white" fill-opacity="0.3"/>
</svg>
