<svg width="87" height="70" viewBox="0 0 87 70" fill="none" xmlns="http://www.w3.org/2000/svg">
<path d="M41.7359 11.6781C35.4432 13.4257 30.5489 16.4839 27.053 20.8528C23.7319 25.2217 22.0713 30.5517 22.0713 36.8429H35.9676V69.3474H0.571289V42.3477C0.571289 37.9788 1.18308 33.6099 2.40666 29.2411C3.80503 24.6974 5.98999 20.5033 8.96153 16.6587C11.9331 12.6393 15.7786 9.14419 20.4981 6.17334C25.2176 3.20251 30.8985 1.19283 37.5408 0.144287L41.7359 11.6781ZM86.5713 11.6781C80.1038 13.4257 75.2095 16.4839 71.8884 20.8528C68.5672 25.2217 66.9067 30.5517 66.9067 36.8429H80.803V69.3474H45.6688V42.3477C45.6688 37.9788 46.2806 33.6099 47.5042 29.2411C48.9026 24.6974 51.0875 20.5033 54.0591 16.6587C57.0306 12.6393 60.7888 9.14419 65.3335 6.17334C70.053 3.20251 75.8213 1.19283 82.6384 0.144287L86.5713 11.6781Z" fill="white" fill-opacity="0.3"/>
</svg>
